<svg xmlns="http://www.w3.org/2000/svg" viewBox="0 0 160 160" role="img" aria-label="合作微信二维码">
  <rect width="160" height="160" rx="12" fill="#fff"/>
  <g fill="#111827">
    <path d="M12 12h48v48H12zM20 20v32h32V20zM28 28h16v16H28zM100 12h48v48h-48zM108 20v32h32V20zM116 28h16v16h-16zM12 100h48v48H12zM20 108v32h32v-32zM28 116h16v16H28z"/>
    <path d="M72 12h12v12H72zM72 36h12v12H72zM72 60h12v12H72zM96 72h12v12H96zM120 72h12v12h-12zM144 72h4v12h-4zM72 84h12v12H72zM84 96h12v12H84zM108 96h12v12h-12zM132 96h16v12h-16zM72 120h12v12H72zM96 120h12v12H96zM120 120h12v12h-12zM84 144h12v4H84zM108 132h12v16h-12zM132 120h16v12h-16zM132 140h16v8h-16z"/>
  </g>
</svg>
